<?xml version="1.0" standalone="no"?>
<!DOCTYPE svg PUBLIC "-//W3C//DTD SVG 20010904//EN"
 "http://www.w3.org/TR/2001/REC-SVG-20010904/DTD/svg10.dtd">
<svg version="1.0" xmlns="http://www.w3.org/2000/svg"
 width="500.000000pt" height="380.000000pt" viewBox="0 0 500.000000 380.000000"
 preserveAspectRatio="xMidYMid meet">
<metadata>
Created by potrace 1.16, written by Peter Selinger 2001-2019
</metadata>
<g transform="translate(0.000000,380.000000) scale(0.100000,-0.100000)"
fill="#000000" stroke="none">
<path d="M2712 2931 c-105 -37 -198 -97 -288 -188 l-72 -73 -72 0 c-113 0
-162 -34 -224 -157 -14 -29 -26 -55 -26 -58 0 -3 46 -5 103 -5 l102 0 113
-113 112 -112 0 -108 0 -107 52 26 c138 70 168 110 168 224 l0 73 83 86 c141
146 204 279 214 449 l6 92 -94 0 c-77 0 -109 -5 -177 -29z m19 -209 c29 -24
30 -75 1 -104 -46 -46 -122 -13 -122 53 0 60 72 90 121 51z"/>
<path d="M2168 2263 c-29 -30 -61 -98 -73 -152 l-7 -34 42 7 c51 8 116 39 153
74 l27 26 -52 53 c-29 29 -55 53 -58 53 -4 0 -18 -12 -32 -27z"/>
<path d="M1620 1270 l0 -110 48 0 c76 0 121 17 128 47 8 32 -6 57 -35 61 -27
4 -27 18 -1 25 14 4 20 14 20 34 0 44 -16 53 -92 53 l-68 0 0 -110z"/>
<path d="M2443 1353 c-7 -2 -13 -11 -13 -19 0 -8 -7 -14 -16 -14 -10 0 -14 -7
-12 -22 2 -13 8 -22 13 -20 6 1 12 -24 15 -55 l5 -58 50 0 c39 0 50 4 53 17 2
12 -5 17 -25 20 -25 3 -28 7 -28 38 0 29 4 36 23 38 32 5 30 42 -3 42 -18 0
-25 5 -25 20 0 19 -12 24 -37 13z"/>
<path d="M1851 1294 c-60 -77 21 -164 113 -123 32 15 50 66 37 102 -13 33 -39
47 -90 47 -31 0 -44 -6 -60 -26z"/>
<path d="M2055 1295 c-54 -53 -15 -135 63 -135 58 0 87 27 87 80 0 32 -6 47
-24 61 -34 28 -96 25 -126 -6z"/>
<path d="M2252 1308 c-27 -27 -14 -55 33 -75 25 -10 45 -21 45 -25 0 -12 -38
-10 -45 2 -10 16 -55 12 -55 -4 0 -37 85 -60 131 -36 21 12 26 52 7 67 -7 6
-26 15 -42 20 -17 5 -32 15 -34 23 -4 10 0 11 14 5 32 -13 74 -18 74 -8 0 35
-100 59 -128 31z"/>
<path d="M2650 1315 c0 -3 16 -37 36 -76 38 -77 38 -99 -1 -99 -18 0 -25 -5
-25 -20 0 -17 7 -20 49 -20 52 0 61 8 61 56 0 14 14 51 30 84 36 72 37 80 6
80 -23 0 -40 -29 -58 -99 -2 -8 -13 10 -25 40 -16 45 -25 55 -47 57 -14 2 -26
1 -26 -3z"/>
<path d="M2882 1297 c-32 -34 -30 -89 4 -116 15 -12 41 -21 59 -21 50 0 85 33
85 81 0 54 -27 79 -83 79 -33 0 -49 -6 -65 -23z"/>
<path d="M3060 1269 c0 -50 12 -87 34 -101 20 -14 56 -8 75 11 19 19 19 19 24
-1 4 -12 12 -18 24 -16 15 3 18 15 21 81 3 77 3 77 -23 77 -23 0 -25 -4 -25
-44 0 -27 -6 -51 -16 -60 -35 -36 -64 -10 -64 56 0 45 -2 48 -25 48 -23 0 -25
-3 -25 -51z"/>
<path d="M3240 965 l0 -55 -20 20 c-47 47 -110 10 -110 -64 0 -36 5 -48 26
-65 15 -12 32 -21 39 -21 7 0 24 9 39 21 21 17 26 18 26 5 0 -10 9 -16 25 -16
l25 0 0 115 0 115 -25 0 c-24 0 -25 -3 -25 -55z"/>
<path d="M1408 983 c-10 -3 -18 -11 -18 -20 0 -8 -9 -17 -20 -20 -11 -3 -20
-14 -20 -24 0 -12 7 -19 20 -19 18 0 20 -7 20 -54 0 -61 6 -67 65 -57 47 7 55
34 13 39 -25 3 -28 8 -28 38 0 30 3 34 25 34 18 0 25 5 25 20 0 15 -7 20 -25
20 -18 0 -25 5 -25 19 0 23 -8 29 -32 24z"/>
<path d="M1919 983 c-10 -2 -19 -13 -22 -24 -5 -19 -11 -20 -76 -13 -93 9
-101 2 -101 -87 0 -67 1 -69 25 -69 24 0 25 3 25 54 l0 54 45 4 c73 5 85 -3
85 -61 0 -55 6 -60 63 -53 28 3 37 9 37 23 0 14 -7 19 -25 19 -22 0 -25 4 -25
35 0 31 3 35 25 35 18 0 25 5 25 20 0 15 -7 20 -25 20 -18 0 -25 5 -25 19 0
23 -8 29 -31 24z"/>
<path d="M2798 982 c-9 -2 -20 -12 -23 -23 -4 -10 -13 -19 -21 -19 -8 0 -14
-9 -14 -20 0 -11 6 -20 14 -20 9 0 16 -18 21 -55 3 -30 10 -57 14 -59 4 -3 26
-2 49 1 32 4 42 10 42 24 0 12 -9 19 -27 21 -24 2 -28 8 -28 33 0 23 5 30 25
35 36 8 38 38 3 42 -17 2 -29 10 -33 23 -3 13 -12 19 -22 17z"/>
<path d="M1212 934 c-12 -8 -22 -21 -22 -28 0 -18 29 -41 64 -53 17 -5 32 -15
34 -21 4 -14 -34 -16 -43 -2 -9 15 -55 12 -55 -4 0 -19 20 -32 60 -40 47 -8
85 12 85 44 0 20 -10 30 -50 49 -36 18 -45 26 -31 29 10 2 23 -1 29 -7 16 -16
47 -14 47 3 0 20 -39 46 -70 46 -14 0 -36 -7 -48 -16z"/>
<path d="M1546 929 c-14 -11 -26 -25 -26 -30 0 -13 37 -11 59 3 10 6 27 8 37
4 16 -6 16 -9 4 -16 -8 -6 -25 -10 -38 -10 -40 0 -62 -18 -62 -51 0 -53 73
-63 113 -15 10 11 17 17 16 11 -4 -26 3 -35 26 -35 18 0 25 5 25 20 0 11 -4
20 -10 20 -5 0 -10 16 -10 35 0 72 -77 109 -134 64z"/>
<path d="M2520 930 c-16 -16 -20 -17 -20 -5 0 9 -9 15 -25 15 l-25 0 0 -105 0
-105 25 0 c23 0 25 4 25 46 l0 45 26 -20 c15 -12 32 -21 39 -21 7 0 24 9 39
21 21 17 26 29 26 65 0 51 -25 84 -65 84 -14 0 -34 -9 -45 -20z"/>
<path d="M2955 941 c-32 -14 -47 -37 -47 -75 0 -45 7 -55 49 -73 41 -17 97 -3
113 27 15 29 12 76 -7 99 -20 24 -77 35 -108 22z"/>
<path d="M3342 923 c-24 -25 -25 -28 -8 -31 10 -2 29 2 42 8 27 15 68 5 44
-10 -8 -6 -27 -10 -42 -10 -55 0 -77 -57 -34 -85 29 -20 71 -11 91 18 l15 21
0 -22 c0 -17 6 -22 25 -22 18 0 25 5 25 20 0 11 -4 20 -10 20 -5 0 -10 18 -10
39 0 75 -84 108 -138 54z"/>
<path d="M2240 886 c0 -65 22 -98 65 -98 18 0 36 8 47 22 18 22 18 22 18 1 0
-16 6 -21 25 -21 24 0 25 2 25 75 0 73 -1 75 -25 75 -22 0 -25 -4 -25 -38 0
-49 -19 -75 -51 -70 -21 3 -24 8 -27 56 -3 48 -5 52 -28 52 -22 0 -24 -3 -24
-54z"/>
<path d="M3555 870 c42 -83 44 -100 10 -100 -18 0 -25 -5 -25 -20 0 -23 37
-36 75 -26 21 5 25 12 25 41 0 21 15 65 35 105 l35 70 -29 0 c-25 0 -31 -6
-48 -50 l-19 -51 -18 51 c-16 44 -21 50 -47 50 l-29 0 35 -70z"/>
</g>
</svg>
